<?xml version="1.0" encoding="utf-8"?>
<!-- Generator: Adobe Illustrator 26.5.1, SVG Export Plug-In . SVG Version: 6.00 Build 0)  -->
<svg version="1.1" id="Layer_1" xmlns="http://www.w3.org/2000/svg" xmlns:xlink="http://www.w3.org/1999/xlink" x="0px" y="0px"
	 viewBox="0 0 576 311.92" style="enable-background:new 0 0 576 311.92;" xml:space="preserve">
<style type="text/css">
	.st0{fill:#FFFFFF;}
</style>
<g>
	<g>
		<path class="st0" d="M264.23,254.24c3.9,3.88,7.1,2.56,7.11-2.95l0.34-208.48c0.01-5.5-4.49-10.01-9.99-10.01H51.83
			c-5.5,0-6.82,3.18-2.92,7.06L264.23,254.24z"/>
	</g>
	<path class="st0" d="M445.36,32.81h-39.18c-0.37,0-0.74,0.02-1.11,0.03v-0.03H317.1c-6.51,0-11.78,5.27-11.78,11.78v89.08v50.96
		v89.08c0,6.51,5.27,11.78,11.78,11.78h87.96v-0.03c0.37,0,0.74,0.03,1.11,0.03h39.18c61.95,0,112.64-50.69,112.64-112.64v-27.4
		C558,83.49,507.31,32.81,445.36,32.81z"/>
	<g>
		<path class="st0" d="M25.47,64.05c-3.9-3.88-7.1-2.56-7.11,2.95l-0.34,208.48c-0.01,5.5,4.49,10.01,9.99,10.01h209.86
			c5.5,0,6.82-3.18,2.92-7.06L25.47,64.05z"/>
	</g>
</g>
</svg>
