<?xml version="1.0" encoding="utf-8"?>
<!-- Generator: Adobe Illustrator 26.5.1, SVG Export Plug-In . SVG Version: 6.00 Build 0)  -->
<svg version="1.1" id="Layer_1" xmlns="http://www.w3.org/2000/svg" xmlns:xlink="http://www.w3.org/1999/xlink" x="0px" y="0px"
	 viewBox="0 0 576 576" style="enable-background:new 0 0 576 576;" xml:space="preserve">
<g>
	<g>
		<path d="M266.35,370.15c3.9,3.88,7.1,2.56,7.11-2.95l0.3-179.52c0.01-5.5-4.49-10.01-9.99-10.01H83.03c-5.5,0-6.82,3.18-2.92,7.06
			L266.35,370.15z"/>
	</g>
	<path d="M425.42,177.67H391.2c-0.33,0-0.65,0.02-0.97,0.02v-0.02h-76.82c-5.68,0-10.29,4.61-10.29,10.29v77.79v44.5v77.79
		c0,5.68,4.61,10.29,10.29,10.29h76.82v-0.02c0.33,0,0.65,0.02,0.97,0.02h34.22c54.1,0,98.36-44.26,98.36-98.36v-23.93
		C523.78,221.94,479.52,177.67,425.42,177.67z"/>
	<g>
		<path d="M59.64,205.85c-3.9-3.88-7.1-2.56-7.11,2.95l-0.3,179.52c-0.01,5.5,4.49,10.01,9.99,10.01h180.73
			c5.5,0,6.82-3.18,2.92-7.06L59.64,205.85z"/>
	</g>
</g>
</svg>
