<?xml version="1.0" standalone="no"?>
<!DOCTYPE svg PUBLIC "-//W3C//DTD SVG 20010904//EN"
 "http://www.w3.org/TR/2001/REC-SVG-20010904/DTD/svg10.dtd">
<svg version="1.0" xmlns="http://www.w3.org/2000/svg"
 width="700.000000pt" height="700.000000pt" viewBox="0 0 700.000000 700.000000"
 preserveAspectRatio="xMidYMid meet">
<metadata>
Created by potrace 1.14, written by Peter Selinger 2001-2017
</metadata>
<g transform="translate(0.000000,700.000000) scale(0.100000,-0.100000)"
fill="#000000" stroke="none">
<path d="M1085 4839 c-35 -6 -54 -21 -55 -44 0 -15 2312 -2313 2333 -2319 47
-12 46 -34 48 1154 2 1027 1 1118 -15 1147 -34 67 38 63 -1175 66 -604 1
-1115 -1 -1136 -4z"/>
<path d="M3994 4840 c-134 -4 -155 -7 -174 -25 -53 -48 -50 19 -50 -1317 0
-1215 1 -1244 20 -1275 40 -66 4 -63 807 -63 400 0 753 3 783 6 370 37 714
260 908 589 78 132 129 277 148 415 3 25 8 48 10 52 7 11 5 507 -2 563 -56
462 -379 853 -827 999 -42 14 -95 28 -119 31 -23 4 -45 8 -48 10 -25 15 -1107
27 -1456 15z"/>
<path d="M744 4516 c-18 -14 -19 -52 -19 -1149 l0 -1135 25 -27 c14 -15 36
-31 49 -36 37 -14 2270 -12 2287 2 8 6 14 20 14 30 0 10 -339 356 -826 841
-1297 1293 -1471 1466 -1492 1477 -14 7 -24 7 -38 -3z"/>
</g>
</svg>
